<svg xmlns="http://www.w3.org/2000/svg" width="38" height="47" viewBox="0 0 37.96253 46.82263"><path fill="#fff" d="M34.77971,21.4613a9.94587,9.94587,0,0,1-2.94,2.14,9.77693,9.77693,0,0,0-1.74-2.32c.56994-.83,1.25-1.82,1.78-2.53,1.03-1.46,2.16-.37,4.98-.54,2.81-.18,3.29-2.79,2.16-3.98-1.13-1.18-3.32.81-4.18.54-.86-.27-.59-1.39,2.69-4.65,3.3-3.26,4.63-8.03,1.45-8.50995-3.17-.47-4.87994,6.53-5.92,6.76-.99.23-2.7-5.16-4.95-4.37a1.25846,1.25846,0,0,0-.35.17c-2.29,1.42,2.24,7.16,2.47,8.88v.12a.7114.7114,0,0,1-.00995.15,44.79456,44.79456,0,0,1-2.46,5.33l-.45.71a13.60568,13.60568,0,0,0-11.06-.09l-.38-.62a43.22336,43.22336,0,0,1-2.46-5.33c-.32-1.31,4.88995-7.64,2.46-9.15-2.44-1.52-4.27,4.44-5.31,4.2-1.03-.23-2.75-7.23-5.92-6.76-.1.02-.19.04-.28.06-2.81.71-1.46,5.3,1.73,8.45,1.94,1.93,2.83,3.1,3.06,3.8.16.48-.01.73-.37.85-.7.22-2.33-1.1-3.51-.89a1.16183,1.16183,0,0,0-.65.35c-1.14,1.19-.66,3.8,2.16,3.98a9.61593,9.61593,0,0,0,1.44-.02c1.8-.14,2.69-.62,3.53.56.49.67,1.11,1.59,1.67,2.37l-.00994.01a9.65723,9.65723,0,0,0-1.84,2.36,9.807,9.807,0,0,1-2.72-2.03c-1.92-2.07-3.06006-2.04-3.9-1.32a5.63038,5.63038,0,0,0-.36,6.67,5.63372,5.63372,0,0,0,5.02,2.68005c-1.74,6.28-3.72,14.06,3.14,17.33a20.70657,20.70657,0,0,0,8.92,1.59c17.02,0,14.33-10.76,12.06-18.94a5.75935,5.75935,0,0,0,4.95-9.33C37.83971,19.42133,36.69969,19.3913,34.77971,21.4613Zm-9.89,8.51a1.16113,1.16113,0,1,1-1.11,1.16A1.14837,1.14837,0,0,1,24.8897,29.97131Zm-6.41,0a1.16072,1.16072,0,1,1-1.12,1.16A1.13176,1.13176,0,0,1,18.47966,29.97131Zm3.19,12.42c-3.31,0-6.00994-1.8-6.00994-4.03,0-2.22,2.7-4.02,6.00994-4.02,3.32,0,6.01,1.8,6.01,4.02C27.67967,40.59131,24.98967,42.3913,21.66966,42.3913Z" transform="translate(-2.83103 -1.58868)"/></svg>